<svg class="img-fluid" id="outputsvg" xmlns="http://www.w3.org/2000/svg" style="transform: matrix(1, 0, 0, 1, 0, 0);transform-origin: 50% 50%;cursor: move;transition: none;" width="1428" height="252" viewBox="0 0 14280 2520"><g id="l55Mf7yFvwREBqp5IWpys6P" fill="rgb(255,255,255)" style="transform: none;"><g style="transform: none;"><path id="pwpTnNGJH" d="M4572 2354 l-22 -15 0 -1093 c0 -836 3 -1095 12 -1104 9 -9 76 -12 241 -12 254 0 274 4 317 63 27 37 115 143 430 521 432 518 469 561 482 561 10 0 13 -108 16 -559 1 -393 5 -563 13 -573 9 -10 69 -13 291 -13 173 0 287 4 299 10 19 10 19 33 19 1110 0 1077 0 1100 -19 1110 -31 16 -444 13 -485 -4 -21 -9 -62 -49 -112 -111 -91 -113 -651 -785 -767 -922 -76 -88 -99 -108 -111 -96 -3 4 -6 257 -6 564 0 542 -1 559 -19 569 -12 6 -122 10 -288 10 -227 0 -272 -2 -291 -16z"></path><path id="pOA0MXuB" d="M12740 2358 c-224 -38 -438 -128 -600 -253 -157 -121 -314 -329 -375 -497 -155 -424 -66 -853 242 -1173 110 -114 207 -187 333 -250 64 -32 233 -95 270 -100 14 -2 63 -11 110 -21 65 -13 117 -15 239 -12 135 4 173 10 281 38 111 29 195 60 255 93 11 6 38 19 59 30 21 10 48 27 59 38 12 10 25 19 29 19 24 0 206 167 256 235 330 440 328 988 -4 1406 -134 169 -303 286 -559 390 -30 11 -180 46 -256 58 -78 13 -261 12 -339 -1z m302 -539 c9 -5 26 -9 38 -9 46 0 162 -71 240 -148 117 -116 173 -238 186 -408 16 -196 -68 -405 -213 -533 -32 -28 -62 -51 -67 -51 -5 0 -17 -6 -25 -14 -9 -8 -50 -26 -91 -41 -64 -24 -91 -28 -185 -29 -83 0 -124 4 -165 18 -116 40 -212 105 -283 192 -100 122 -147 254 -147 414 0 190 71 352 208 475 50 45 176 117 227 129 89 22 238 25 277 5z"></path><path id="pdbeDcGVG" d="M1212 2350 c-462 -49 -855 -359 -988 -782 -69 -217 -72 -473 -9 -683 58 -194 190 -409 316 -516 94 -80 261 -189 290 -189 5 0 28 -9 52 -19 39 -18 192 -62 262 -75 260 -49 535 -25 765 66 158 63 409 215 410 248 0 22 -351 370 -374 370 -10 0 -57 -25 -105 -55 -150 -95 -281 -131 -444 -122 -234 13 -418 124 -509 308 -138 278 -55 671 175 823 68 45 127 70 214 90 114 26 286 19 383 -14 14 -5 37 -11 52 -14 58 -13 58 -12 58 -314 0 -152 4 -283 8 -290 7 -9 69 -12 278 -10 l269 3 3 435 c1 239 0 445 -3 457 -13 54 -366 210 -570 252 -33 7 -79 17 -103 22 -61 14 -333 19 -430 9z"></path><path id="pKPo4OkZd" d="M2578 2353 c-10 -2 -21 -17 -25 -31 -5 -15 -8 -508 -8 -1095 0 -1048 0 -1069 19 -1083 17 -12 150 -14 890 -12 l871 3 0 240 0 240 -55 7 c-30 3 -285 6 -567 7 -496 1 -513 2 -523 20 -13 26 -13 316 0 342 10 18 26 19 478 19 351 0 471 3 480 12 9 9 12 73 12 225 0 200 -1 213 -19 223 -13 6 -180 10 -475 10 -400 0 -456 2 -470 16 -22 22 -24 320 -2 350 14 18 33 19 573 21 307 1 561 2 566 3 4 0 7 107 7 239 l0 239 -22 6 c-26 7 -1704 6 -1730 -1z"></path><path id="p190OoQvk1" d="M6852 2348 c-23 -23 -11 -65 74 -258 118 -265 120 -270 137 -310 8 -19 36 -81 61 -137 25 -56 55 -126 67 -155 11 -29 24 -57 28 -63 4 -5 14 -26 21 -45 7 -19 31 -72 52 -118 21 -45 38 -85 38 -87 0 -3 14 -35 31 -72 44 -95 58 -126 139 -313 40 -91 92 -209 116 -262 24 -54 44 -99 44 -102 0 -2 13 -33 29 -68 16 -35 42 -93 59 -130 18 -39 40 -71 53 -79 29 -15 396 -25 515 -14 90 8 115 27 148 111 22 54 161 373 207 472 16 35 29 65 29 68 0 2 13 32 29 66 28 60 131 292 296 668 42 96 85 193 95 215 132 294 241 548 246 572 5 25 2 33 -14 42 -27 15 -530 15 -568 1 -15 -6 -34 -18 -41 -28 -16 -20 -68 -129 -120 -252 -20 -47 -45 -97 -55 -113 l-19 -27 -443 0 -443 0 -21 23 c-12 12 -35 56 -52 97 -30 73 -60 140 -103 229 -39 80 -44 81 -352 81 -198 0 -274 -3 -283 -12z m1513 -888 c6 -9 -68 -203 -160 -420 -20 -47 -45 -110 -57 -140 -23 -62 -53 -99 -67 -85 -8 9 -51 111 -146 355 -80 201 -105 270 -105 285 0 13 34 15 264 15 166 0 267 -4 271 -10z"></path><path id="p11GpYXMIC" d="M9623 2353 l-83 -4 0 -1087 c0 -645 4 -1093 10 -1102 14 -23 123 -29 542 -29 517 -1 713 15 888 71 155 50 236 96 338 192 168 157 264 474 217 712 -47 242 -146 383 -357 514 -27 16 -48 37 -48 46 0 16 40 76 371 554 43 63 79 120 79 127 0 10 -68 13 -319 13 -176 0 -326 -3 -335 -6 -16 -6 -44 -46 -249 -344 -55 -80 -116 -166 -135 -192 l-36 -48 -152 0 c-111 0 -155 3 -161 13 -4 6 -10 138 -13 292 l-5 280 -235 1 c-129 0 -272 -1 -317 -3z m1099 -1110 c64 -30 131 -94 159 -151 29 -63 32 -195 6 -264 -22 -56 -95 -127 -160 -156 -82 -36 -143 -43 -342 -40 l-190 3 -9 292 c-4 161 -5 304 -2 319 l7 25 242 -3 c224 -3 246 -5 289 -25z"></path></g></g></svg>